<?xml version="1.0" encoding="utf-8"?>
<!-- Generated by IcoMoon.io -->
<!DOCTYPE svg PUBLIC "-//W3C//DTD SVG 1.1//EN" "http://www.w3.org/Graphics/SVG/1.1/DTD/svg11.dtd">
<svg version="1.1" xmlns="http://www.w3.org/2000/svg" xmlns:xlink="http://www.w3.org/1999/xlink" width="32" height="32" viewBox="0 0 32 32">
<g id="icomoon-ignore">
</g>
<path d="M15.999 0.762c-8.415 0-15.237 6.822-15.237 15.238s6.821 15.238 15.237 15.238c8.417 0 15.238-6.823 15.238-15.238s-6.821-15.238-15.238-15.238zM15.999 25.207c-5.085 0-9.205-4.122-9.205-9.207s4.12-9.207 9.205-9.207 9.207 4.122 9.207 9.207-4.122 9.207-9.207 9.207z" fill="#000000"></path>
<path d="M20.508 16c0 2.49-2.018 4.508-4.508 4.508s-4.508-2.018-4.508-4.508c0-2.49 2.018-4.508 4.508-4.508s4.508 2.018 4.508 4.508z" fill="#000000"></path>
</svg>
